# xmcd CD database file
#
# Track frame offsets:
#	150
#	16302
#	33673
#	53296
#	83516
#	100736
#	119886
#	143809
#	166821
#	183429
#	203532
#	226411
#	247277
#	263160
#	276881
#
# Disc length: 3845 seconds
#
# Revision: 0
# Processed by: cddbd v1.5.1PL2 Copyright (c) Steve Scherf et al.
# Submitted via: CDex 1.51
#
DISCID=c80f030f
DTITLE=Latina Fever - Latina Fever - CD1
DYEAR=2006
DGENRE=Salsa
TTITLE0=Yuri Buenaventura - Salsa Dura
TTITLE1=Maraca - Castigala
TTITLE2=Mayito Rivera - Si Yo Fuera Dios
TTITLE3=Afro-Cuban All Stars - Alto Songo
TTITLE4=Oscar D'Leon - Me voy Pa'Cali
TTITLE5=Azuquita - Dalida Tiene Salsa
TTITLE6=Los Van Van - Eso Que Anda
TTITLE7=Ruben Gonzales - Chanchullo
TTITLE8=Pio Leiva - Yo No Soy Mentiroso
TTITLE9=Irakere - Pare Cochero
TTITLE10=Sierra Maestra - Dundunbanza
TTITLE11=Pink Martini - Amado Mio
TTITLE12=Omara Portuondo - Mueve La Cintura Mulato
TTITLE13=Compay Segundo - Voy "Pa" Mayari
TTITLE14=The Quantic Soul Orchestra - Babarabatiri
EXTD=YEAR: 2006
EXTT0=
EXTT1=
EXTT2=
EXTT3=
EXTT4=
EXTT5=
EXTT6=
EXTT7=
EXTT8=
EXTT9=
EXTT10=
EXTT11=
EXTT12=
EXTT13=
EXTT14=
PLAYORDER=
